P2
5 4
10
0 0 7 2 2 
0 0 7 2 2 
0 0 7 2 2 
2 5 7 7 10 
